<?xml version="1.0" encoding="utf-8"?>
<!-- Generator: Adobe Illustrator 27.6.1, SVG Export Plug-In . SVG Version: 6.00 Build 0)  -->
<svg version="1.1" id="Layer_1" xmlns="http://www.w3.org/2000/svg" xmlns:xlink="http://www.w3.org/1999/xlink" x="0px" y="0px"
	 width="1024px" height="1024px" viewBox="0 0 1024 1024" enable-background="new 0 0 1024 1024" xml:space="preserve">
<linearGradient id="SVGID_1_" gradientUnits="userSpaceOnUse" x1="0" y1="512" x2="1024" y2="512">
	<stop  offset="0" style="stop-color:#2967B0"/>
	<stop  offset="1" style="stop-color:#2B388F"/>
</linearGradient>
<rect fill="url(#SVGID_1_)" width="1024" height="1024"/>
<g>
	<g>
		<g>
			<path fill="#FFFFFF" stroke="#FFFFFF" stroke-width="4" stroke-miterlimit="10" d="M383.41,918.03c-3.11,0-5.87-1.97-6.88-4.9
				c-0.36-0.97-0.58-2.06-0.58-2.95v-44.91c0-4.03,3.26-7.29,7.29-7.29s7.29,3.26,7.29,7.29v38.19l242.47-0.09v-35.88
				c0-4.03,3.26-7.29,7.29-7.29c4.03,0,7.29,3.26,7.29,7.29v43.15c0,4.03-3.26,7.28-7.29,7.29L383.41,918.03L383.41,918.03z"/>
		</g>
		<g>
			<path fill="#FFFFFF" stroke="#FFFFFF" stroke-width="4" stroke-miterlimit="10" d="M640.05,875.25H522.16
				c-4.03,0-7.29-3.26-7.29-7.29c0-4.03,3.26-7.29,7.29-7.29h111.09v-12.93H390.19v12.93h27.77c4.03,0,7.29,3.26,7.29,7.29
				c0,4.03-3.26,7.29-7.29,7.29h-34.49c-4.03,0-7.86-3.83-7.86-7.86v-26.46c0-4.03,3.83-7.76,7.86-7.76h256.58
				c4.03,0,7.77,3.73,7.77,7.76v26.46C647.82,871.42,644.08,875.25,640.05,875.25z"/>
		</g>
		<g>
			<path fill="#FFFFFF" stroke="#FFFFFF" stroke-width="8" stroke-miterlimit="10" d="M624.83,847.75H399.12
				c-7.64,0-14.07-5.72-14.95-13.31c-9.99-78.51-45.67-140.08-80.18-199.63c-34.48-59.51-67.05-115.71-67.05-180.61
				c0-151.66,123.37-275.04,275-275.04c52.27,0,103.09,14.69,146.94,42.47c42.73,27.08,77.16,65.24,99.57,110.38
				c1.79,3.6,0.32,7.98-3.28,9.76c-3.6,1.81-7.98,0.32-9.76-3.28c-21.23-42.75-53.85-78.9-94.32-104.55
				c-41.52-26.29-89.65-40.19-139.15-40.19c-143.6,0-260.43,116.84-260.43,260.46c0,60.98,31.61,115.54,65.08,173.31
				c33.59,57.96,71.65,123.66,82.03,205.17l226.2,0.49c10.87-81.99,44.93-138.22,77.87-192.61c24.91-41.14,48.45-79.99,61.83-128.6
				c1.07-3.87,5.06-6.15,8.96-5.09c3.87,1.07,6.15,5.08,5.09,8.96c-13.92,50.54-39.08,92.1-63.42,132.28
				c-32.14,53.08-65.39,107.98-75.33,186.41C638.9,842.04,632.46,847.75,624.83,847.75z M779.75,461.49c-4.03,0-7.29-3.26-7.29-7.29
				c0-20.29-2.33-40.52-6.95-60.13c-0.92-3.91,1.51-7.84,5.43-8.76c3.85-0.91,7.84,1.5,8.76,5.43c4.87,20.69,7.34,42.04,7.34,63.46
				C787.04,458.23,783.78,461.49,779.75,461.49z"/>
		</g>
		<g>
			<path fill="#FFFFFF" stroke="#FFFFFF" stroke-width="8" stroke-miterlimit="10" d="M504.69,156c-4.03,0-7.29-3.26-7.29-7.29
				V75.98c0-4.03,3.26-7.29,7.29-7.29c4.03,0,7.29,3.26,7.29,7.29v72.73C511.98,152.73,508.72,156,504.69,156z"/>
		</g>
		<g>
			<path fill="#FFFFFF" stroke="#FFFFFF" stroke-width="8" stroke-miterlimit="10" d="M660.3,193.84c-1.24,0-2.48-0.32-3.63-0.99
				c-3.48-2.01-4.67-6.47-2.66-9.95l36.4-62.96c2.01-3.47,6.47-4.67,9.95-2.66c3.48,2.01,4.67,6.47,2.66,9.95l-36.4,62.96
				C665.27,192.53,662.82,193.84,660.3,193.84z"/>
		</g>
		<g>
			<path fill="#FFFFFF" stroke="#FFFFFF" stroke-width="8" stroke-miterlimit="10" d="M776.28,304.4c-2.52,0-4.97-1.31-6.32-3.64
				c-2.01-3.48-0.82-7.93,2.66-9.95l62.97-36.41c3.49-2.02,7.95-0.81,9.95,2.66c2.01,3.48,0.82,7.93-2.66,9.95l-62.98,36.41
				C778.76,304.09,777.52,304.4,776.28,304.4z"/>
		</g>
		<g>
			<path fill="#FFFFFF" stroke="#FFFFFF" stroke-width="8" stroke-miterlimit="10" d="M894.07,458.12h-72.7
				c-4.03,0-7.29-3.26-7.29-7.29s3.26-7.29,7.29-7.29h72.7c4.03,0,7.29,3.26,7.29,7.29S898.1,458.12,894.07,458.12z"/>
		</g>
		<g>
			<path fill="#FFFFFF" stroke="#FFFFFF" stroke-width="8" stroke-miterlimit="10" d="M846.47,650.08c-1.23,0-2.48-0.32-3.63-0.97
				l-62.95-36.31c-3.48-2.01-4.67-6.47-2.67-9.96c2.01-3.47,6.45-4.67,9.96-2.67l62.95,36.31c3.48,2.01,4.67,6.47,2.67,9.96
				C851.43,648.76,848.98,650.08,846.47,650.08z"/>
		</g>
		<g>
			<path fill="#FFFFFF" stroke="#FFFFFF" stroke-width="8" stroke-miterlimit="10" d="M184.77,662.64c-2.52,0-4.97-1.31-6.33-3.64
				c-2-3.49-0.81-7.95,2.67-9.96l62.94-36.31c3.51-2,7.93-0.8,9.96,2.67c2,3.49,0.81,7.95-2.67,9.96l-62.94,36.31
				C187.25,662.32,185.99,662.64,184.77,662.64z"/>
		</g>
		<g>
			<path fill="#FFFFFF" stroke="#FFFFFF" stroke-width="8" stroke-miterlimit="10" d="M202.66,472.61h-72.74
				c-4.03,0-7.29-3.26-7.29-7.29c0-4.03,3.26-7.29,7.29-7.29h72.74c4.03,0,7.29,3.26,7.29,7.29
				C209.95,469.35,206.69,472.61,202.66,472.61z"/>
		</g>
		<g>
			<path fill="#FFFFFF" stroke="#FFFFFF" stroke-width="8" stroke-miterlimit="10" d="M240.41,316.94c-1.23,0-2.48-0.32-3.62-0.97
				l-62.97-36.3c-3.49-2.01-4.68-6.47-2.68-9.95c2.02-3.47,6.48-4.67,9.95-2.68l62.97,36.3c3.49,2.01,4.68,6.47,2.68,9.95
				C245.38,315.62,242.94,316.94,240.41,316.94z"/>
		</g>
		<g>
			<path fill="#FFFFFF" stroke="#FFFFFF" stroke-width="8" stroke-miterlimit="10" d="M350.98,201.08c-2.53,0-4.97-1.31-6.33-3.64
				l-36.31-62.96c-2-3.49-0.81-7.95,2.67-9.96c3.54-2.01,7.95-0.79,9.96,2.67l36.31,62.96c2,3.49,0.81,7.95-2.67,9.96
				C353.47,200.76,352.21,201.08,350.98,201.08z"/>
		</g>
		<g>
			<path fill="#FFFFFF" stroke="#FFFFFF" stroke-width="4" stroke-miterlimit="10" d="M561.43,955.31h-99.79
				c-4.03,0-7.29-3.26-7.29-7.29c0-10.88-0.11-22.06-0.28-33.79c-0.05-4.03,3.16-7.33,7.18-7.4c4.1-0.5,7.33,3.16,7.4,7.18
				c0.13,9.2,0.23,18.07,0.26,26.72h85.28c0.07-9.11,0.13-18.55,0.24-28.62c0.05-3.99,3.31-7.21,7.29-7.21c0.02,0,0.05,0,0.08,0
				c4.03,0.05,7.26,3.35,7.21,7.37c-0.14,12.74-0.22,24.49-0.28,35.8C568.68,952.07,565.43,955.31,561.43,955.31z"/>
		</g>
		<g>
			<path fill="#FFFFFF" stroke="#FFFFFF" stroke-width="4" stroke-miterlimit="10" d="M485.39,875.25h-25.77
				c-4.03,0-7.29-3.26-7.29-7.29c0-4.03,3.26-7.29,7.29-7.29h25.77c4.03,0,7.29,3.26,7.29,7.29
				C492.68,871.99,489.42,875.25,485.39,875.25z"/>
		</g>
		<g>
			<g>
				<path fill="#FFFFFF" stroke="#FFFFFF" stroke-width="8" stroke-miterlimit="10" d="M707.33,551.1h-83.38
					c-2.58,0-4.96-1.37-6.27-3.59c-0.79-1.32-1.12-2.85-0.98-4.35c-3.74,4.84-10.1,7.93-16.34,7.93H426.24
					c-6.11,0-12.32-2.97-16.1-7.61c0.01,0.11,0.01,0.21,0.01,0.32c0,4.03-3.26,7.29-7.29,7.29c-0.05,0.01-0.14,0.01-0.22,0h-83.38
					c-6.06,0-12.23-3.08-15.68-7.84c-2.75-3.79-3.54-8.38-2.17-12.61l10.38-32.68c15.69-49.15,38.96-76.38,70.88-82.73
					c-19.71-6.42-34-24.98-34-46.8c0-27.07,22.08-49.09,49.21-49.09c27.08,0,49.12,22.02,49.12,49.09
					c0,21.87-14.32,40.44-34.04,46.83c11.14,2.27,21.33,7.15,30.42,14.57c1.99,1.62,2.9,4.08,2.63,6.48
					c14.74-19.95,32.64-31.45,53.97-34.76c-23.17-5.95-40.35-27.02-40.35-52.02c0-29.58,24.09-53.65,53.7-53.65
					c29.59,0,53.67,24.07,53.67,53.65c0,25-17.17,46.07-40.32,52.02c21.28,3.31,39.15,14.78,53.87,34.66
					c-0.24-2.37,0.69-4.8,2.67-6.41c9.15-7.4,19.37-12.26,30.49-14.53c-19.77-6.38-34.11-24.96-34.11-46.83
					c0-27.07,22.08-49.09,49.21-49.09c27.1,0,49.14,22.02,49.14,49.09c0,21.82-14.27,40.37-33.95,46.8
					c31.9,6.34,55.14,33.58,70.77,82.72l10.41,32.72c1.37,4.2,0.58,8.81-2.18,12.6C719.53,548.04,713.39,551.1,707.33,551.1z
					 M633.74,536.53h73.59c1.82,0,3.68-1.29,3.96-1.96l-10.42-32.18c-15.85-49.81-39.42-74.02-72.08-74.02
					c-11.59,0-21.81,2.91-31.06,8.89c8.99,14.15,16.61,31.18,23.22,51.8l11.52,36.34C633.67,529.11,634.09,532.86,633.74,536.53z
					 M513.31,415.14c-36.64,0-63.03,27.01-80.65,82.6l-11.58,36.13c0.18,0.67,2.56,2.66,5.15,2.66h174.12
					c2.57,0,4.95-1.98,5.12-2.79l-11.55-35.97C576.31,442.15,549.93,415.14,513.31,415.14z M397.87,428.37
					c-32.68,0-56.3,24.21-72.2,74.02l-10.39,32.71c0.27,0.12,2.16,1.42,3.98,1.42h73.61c-0.34-3.68,0.09-7.43,1.3-11.17l11.45-36.26
					c6.61-20.63,14.23-37.66,23.2-51.84C419.69,431.35,409.31,428.37,397.87,428.37z M628.79,333.94
					c-19.1,0-34.63,15.48-34.63,34.51c0,19.1,15.53,34.63,34.63,34.63c19.07,0,34.56-15.53,34.56-34.63
					C663.35,349.42,647.85,333.94,628.79,333.94z M397.87,333.94c-19.1,0-34.63,15.48-34.63,34.51c0,19.1,15.53,34.63,34.63,34.63
					c19.04,0,34.54-15.53,34.54-34.63C432.41,349.42,416.91,333.94,397.87,333.94z M513.31,310.48c-21.57,0-39.13,17.52-39.13,39.07
					c0,21.57,17.55,39.13,39.13,39.13c21.56,0,39.09-17.55,39.09-39.13C552.41,328,534.87,310.48,513.31,310.48z"/>
			</g>
		</g>
		<g>
			<path fill="#FFFFFF" stroke="#FFFFFF" stroke-width="8" stroke-miterlimit="10" d="M718.41,551.1H305.59
				c-4.03,0-7.29-3.26-7.29-7.29s3.26-7.29,7.29-7.29h412.83c4.03,0,7.29,3.26,7.29,7.29S722.44,551.1,718.41,551.1z"/>
		</g>
		<g>
			<path fill="#FFFFFF" stroke="#FFFFFF" stroke-width="8" stroke-miterlimit="10" d="M648.34,644.08H368.07
				c-4.03,0-7.29-3.26-7.29-7.29s3.26-7.29,7.29-7.29h280.27c4.03,0,7.29,3.26,7.29,7.29S652.36,644.08,648.34,644.08z"/>
		</g>
		<g>
			<path fill="#FFFFFF" stroke="#FFFFFF" stroke-width="8" stroke-miterlimit="10" d="M579.21,737.17H437.25
				c-4.03,0-7.29-3.26-7.29-7.29s3.26-7.29,7.29-7.29h141.96c4.03,0,7.29,3.26,7.29,7.29S583.24,737.17,579.21,737.17z"/>
		</g>
	</g>
</g>
</svg>
